<svg width="32" height="32" viewBox="0 0 32 32" fill="none" xmlns="http://www.w3.org/2000/svg">
<g clip-path="url(#clip0_73_36)">
<path d="M15.9993 31.9987C24.8355 31.9987 31.9987 24.8355 31.9987 15.9993C31.9987 7.16314 24.8355 0 15.9993 0C7.16314 0 0 7.16314 0 15.9993C0 24.8355 7.16314 31.9987 15.9993 31.9987Z" fill="#1450A3"/>
<path d="M20.3335 13.2958H23.5379C24.3827 13.2958 24.893 14.287 24.4391 15.0418L17.0431 27.3236C16.6026 28.0556 15.5953 28.0556 15.1535 27.3236L14.9937 27.0577L13.5164 24.604L20.3335 13.2972V13.2958Z" fill="white"/>
<path d="M13.7916 22.0727C13.3713 22.7697 12.411 22.7697 11.9907 22.0727L4.70347 9.97076C4.2267 9.17838 4.76256 8.13889 5.64761 8.13889H8.7728L15.4718 19.2886L13.793 22.074L13.7916 22.0727Z" fill="white"/>
<path d="M27.4931 9.9692L26.1635 12.1785H12.45L11.0707 9.88325C10.6168 9.12713 11.1285 8.13733 11.9719 8.13733H26.549C27.4353 8.13733 27.9712 9.17682 27.4931 9.9692Z" fill="white"/>
</g>
<defs>
<clipPath id="clip0_73_36">
<rect width="32" height="32" fill="white"/>
</clipPath>
</defs>
</svg>
