<svg width="130" height="34" viewBox="0 0 130 34" fill="none" xmlns="http://www.w3.org/2000/svg">
    <g clip-path="url(#clip0_73_46)">
        <path
            d="M15.9993 32.9987C24.8355 32.9987 31.9987 25.8355 31.9987 16.9993C31.9987 8.16314 24.8355 1 15.9993 1C7.16314 1 0 8.16314 0 16.9993C0 25.8355 7.16314 32.9987 15.9993 32.9987Z"
            fill="#1450A3" />
        <path
            d="M20.3335 14.2958H23.5379C24.3827 14.2958 24.893 15.287 24.4391 16.0418L17.0431 28.3236C16.6026 29.0556 15.5953 29.0556 15.1535 28.3236L14.9937 28.0577L13.5164 25.604L20.3335 14.2972V14.2958Z"
            fill="white" />
        <path
            d="M13.7916 23.0727C13.3713 23.7697 12.411 23.7697 11.9907 23.0727L4.70347 10.9708C4.2267 10.1784 4.76256 9.13889 5.64761 9.13889H8.7728L15.4718 20.2886L13.793 23.074L13.7916 23.0727Z"
            fill="white" />
        <path
            d="M27.4931 10.9692L26.1635 13.1785H12.45L11.0707 10.8832C10.6168 10.1271 11.1285 9.13733 11.9719 9.13733H26.549C27.4353 9.13733 27.9712 10.1768 27.4931 10.9692Z"
            fill="white" />
    </g>
    <path
        d="M55.9233 6.63636H60.179V20.8352C60.179 22.1477 59.884 23.2879 59.294 24.2557C58.7107 25.2235 57.8987 25.9692 56.858 26.4929C55.8172 27.0166 54.6075 27.2784 53.2287 27.2784C52.0024 27.2784 50.8887 27.063 49.8878 26.6321C48.8935 26.1946 48.1046 25.5317 47.5213 24.6435C46.938 23.7486 46.6496 22.625 46.6562 21.2727H50.9418C50.955 21.8097 51.0644 22.2704 51.2699 22.6548C51.482 23.0327 51.7704 23.3243 52.1349 23.5298C52.5062 23.7287 52.9437 23.8281 53.4474 23.8281C53.9777 23.8281 54.4252 23.7154 54.7898 23.4901C55.161 23.258 55.4427 22.92 55.6349 22.4759C55.8272 22.0317 55.9233 21.4848 55.9233 20.8352V6.63636ZM68.0142 27.2884C67.0398 27.2884 66.1714 27.1193 65.4091 26.7812C64.6468 26.4366 64.0436 25.9295 63.5994 25.2599C63.1619 24.5838 62.9432 23.742 62.9432 22.7344C62.9432 21.8859 63.099 21.1733 63.4105 20.5966C63.7221 20.0199 64.1463 19.5559 64.6832 19.2045C65.2202 18.8532 65.83 18.5881 66.5128 18.4091C67.2022 18.2301 67.9247 18.1042 68.6804 18.0312C69.5687 17.9384 70.2846 17.8523 70.8281 17.7727C71.3717 17.6866 71.7661 17.5606 72.0114 17.3949C72.2566 17.2292 72.3793 16.9839 72.3793 16.6591V16.5994C72.3793 15.9697 72.1804 15.4825 71.7827 15.1378C71.3916 14.7931 70.8348 14.6207 70.1122 14.6207C69.3499 14.6207 68.7434 14.7898 68.2926 15.1278C67.8419 15.4593 67.5436 15.8769 67.3977 16.3807L63.4801 16.0625C63.679 15.1345 64.0701 14.3324 64.6534 13.6562C65.2367 12.9735 65.9891 12.4498 66.9105 12.0852C67.8385 11.714 68.9124 11.5284 70.1321 11.5284C70.9806 11.5284 71.7926 11.6278 72.5682 11.8267C73.3504 12.0256 74.0431 12.3338 74.6463 12.7514C75.2562 13.169 75.7367 13.706 76.0881 14.3622C76.4394 15.0118 76.6151 15.7907 76.6151 16.6989V27H72.598V24.8821H72.4787C72.2334 25.3594 71.9053 25.7803 71.4943 26.1449C71.0833 26.5028 70.5895 26.7846 70.0128 26.9901C69.4361 27.1889 68.7699 27.2884 68.0142 27.2884ZM69.2273 24.3651C69.8504 24.3651 70.4006 24.2424 70.8778 23.9972C71.3551 23.7453 71.7296 23.4072 72.0014 22.983C72.2732 22.5587 72.4091 22.0781 72.4091 21.5412V19.9205C72.2765 20.0066 72.0942 20.0862 71.8622 20.1591C71.6368 20.2254 71.3816 20.2884 71.0966 20.348C70.8116 20.401 70.5265 20.4508 70.2415 20.4972C69.9564 20.5369 69.6979 20.5734 69.4659 20.6065C68.9688 20.6795 68.5346 20.7955 68.1634 20.9545C67.7921 21.1136 67.5038 21.3291 67.2983 21.6009C67.0928 21.866 66.9901 22.1974 66.9901 22.5952C66.9901 23.1719 67.1989 23.6127 67.6165 23.9176C68.0407 24.2159 68.5777 24.3651 69.2273 24.3651ZM79.9013 27V11.7273H84.0078V14.392H84.1669C84.4453 13.4441 84.9126 12.7282 85.5689 12.2443C86.2251 11.7538 86.9808 11.5085 87.8359 11.5085C88.0481 11.5085 88.2768 11.5218 88.522 11.5483C88.7673 11.5748 88.9827 11.6113 89.1683 11.6577V15.4162C88.9695 15.3565 88.6944 15.3035 88.343 15.2571C87.9917 15.2107 87.6702 15.1875 87.3786 15.1875C86.7554 15.1875 86.1986 15.3234 85.7081 15.5952C85.2242 15.8603 84.8397 16.2315 84.5547 16.7088C84.2763 17.1861 84.1371 17.7363 84.1371 18.3594V27H79.9013ZM106.062 11.7273L100.722 27H95.9496L90.6101 11.7273H95.0845L98.2564 22.6548H98.4155L101.577 11.7273H106.062ZM108.229 27V11.7273H112.465V27H108.229ZM110.357 9.75852C109.728 9.75852 109.187 9.54972 108.737 9.1321C108.292 8.70786 108.07 8.20076 108.07 7.61079C108.07 7.02746 108.292 6.52699 108.737 6.10938C109.187 5.68513 109.728 5.47301 110.357 5.47301C110.987 5.47301 111.524 5.68513 111.968 6.10938C112.419 6.52699 112.644 7.02746 112.644 7.61079C112.644 8.20076 112.419 8.70786 111.968 9.1321C111.524 9.54972 110.987 9.75852 110.357 9.75852ZM128.566 16.0824L124.688 16.321C124.622 15.9896 124.479 15.6913 124.26 15.4261C124.042 15.1544 123.753 14.9389 123.395 14.7798C123.044 14.6141 122.623 14.5312 122.132 14.5312C121.476 14.5312 120.923 14.6705 120.472 14.9489C120.021 15.2206 119.796 15.5852 119.796 16.0426C119.796 16.4072 119.942 16.7154 120.233 16.9673C120.525 17.2192 121.025 17.4214 121.735 17.5739L124.499 18.1307C125.984 18.4356 127.091 18.9261 127.82 19.6023C128.549 20.2784 128.914 21.1667 128.914 22.267C128.914 23.268 128.619 24.1463 128.029 24.902C127.445 25.6577 126.643 26.2476 125.623 26.6719C124.608 27.0895 123.438 27.2983 122.113 27.2983C120.091 27.2983 118.48 26.8774 117.28 26.0355C116.087 25.187 115.388 24.0336 115.182 22.5753L119.348 22.3565C119.474 22.973 119.779 23.4437 120.263 23.7685C120.747 24.0866 121.367 24.2457 122.123 24.2457C122.865 24.2457 123.462 24.1032 123.912 23.8182C124.37 23.5265 124.602 23.152 124.608 22.6946C124.602 22.3101 124.439 21.9953 124.121 21.75C123.803 21.4981 123.312 21.3059 122.65 21.1733L120.005 20.6463C118.513 20.348 117.403 19.831 116.674 19.0952C115.951 18.3594 115.59 17.4214 115.59 16.2812C115.59 15.3002 115.855 14.455 116.385 13.7457C116.922 13.0365 117.675 12.4896 118.642 12.1051C119.617 11.7206 120.757 11.5284 122.063 11.5284C123.992 11.5284 125.51 11.9361 126.617 12.7514C127.73 13.5668 128.38 14.6771 128.566 16.0824Z"
        fill="#1450A3" />
    <defs>
        <clipPath id="clip0_73_46">
            <rect width="32" height="32" fill="white" transform="translate(0 1)" />
        </clipPath>
    </defs>
</svg>